<svg id="Layer_5" enable-background="new 0 0 64 64" height="512" viewBox="0 0 64 64" width="512" xmlns="http://www.w3.org/2000/svg"><g><path d="m52.689 12c-.92-1.025-2.067-1.838-3.366-2.357.355.693.655 1.49.899 2.357z"/><path d="m41.331 14h-3.381c-.461.923-.772 1.932-.891 3h3.961c.042-1.015.146-2.029.311-3z"/><path d="m4 17h25v-2.729l2.734-.876c.248-.772.556-1.519.919-2.229l-.085-.166h-28.568c-.551 0-1 .449-1 1v4c0 .551.449 1 1 1zm9-4h2v2h-2zm-4 0h2v2h-2zm-4 0h2v2h-2z"/><path d="m46 9c-.681 0-1.533 1.089-2.155 3h4.309c-.621-1.911-1.473-3-2.154-3z"/><path d="m4 31h30c.26 0 .496-.11.678-.28l-3.336-3.336 1.227-2.384h-28.569c-.551 0-1 .449-1 1v4c0 .551.449 1 1 1zm23-4h2v2h-2zm-4 0h2v2h-2z"/><path d="m7 33h24v4h-24z"/><path d="m34 39h-1-2-27c-.551 0-1 .449-1 1v4c0 .551.449 1 1 1h30c.551 0 1-.449 1-1v-4c0-.551-.449-1-1-1zm-27 4h-2v-2h2zm4 0h-2v-2h2zm4 0h-2v-2h2z"/><path d="m7 19v4h24.879c-.047-.132-.101-.26-.144-.394l-2.735-.877v-2.729z"/><path d="m41.02 19h-3.961c.119 1.068.43 2.077.891 3h3.381c-.165-.971-.269-1.985-.311-3z"/><path d="m43.35 22h5.301c.166-.901.285-1.902.329-3h-5.96c.045 1.098.163 2.099.33 3z"/><path d="m49.323 26.357c1.299-.519 2.446-1.332 3.366-2.357h-2.467c-.244.867-.544 1.664-.899 2.357z"/><path d="m50.98 17h3.961c-.119-1.068-.43-2.077-.891-3h-3.381c.165.971.269 1.985.311 3z"/><path d="m50.669 22h3.381c.461-.923.772-1.932.891-3h-3.961c-.042 1.015-.146 2.029-.311 3z"/><path d="m58.644 14.975-.146-.517c-.279-.986-.667-1.927-1.153-2.796l-.262-.468 1.129-2.195-3.211-3.211-2.195 1.129-.468-.262c-.869-.486-1.81-.875-2.796-1.153l-.517-.146-.754-2.356h-4.541l-.755 2.356-.517.146c-.986.279-1.927.667-2.796 1.153l-.468.262-2.195-1.129-3.211 3.211 1.129 2.195-.262.468c-.486.869-.875 1.81-1.153 2.796l-.146.517-2.356.754v4.541l2.356.755.146.517c.279.988.667 1.928 1.153 2.795l.263.469-1.13 2.195 3.211 3.211 2.195-1.129.468.262c.869.486 1.81.875 2.796 1.153l.517.146.754 2.356h4.541l.755-2.356.517-.146c.986-.279 1.927-.667 2.796-1.153l.468-.262 2.195 1.129 3.211-3.211-1.13-2.195.263-.469c.486-.867.874-1.808 1.153-2.795l.146-.517 2.356-.754v-4.541zm-12.644 14.025c-6.065 0-11-4.935-11-11s4.935-11 11-11 11 4.935 11 11-4.935 11-11 11z"/><path d="m39.311 24c.92 1.025 2.067 1.838 3.366 2.357-.355-.693-.655-1.49-.899-2.357z"/><path d="m43.35 14c-.166.901-.285 1.902-.329 3h5.96c-.044-1.098-.163-2.099-.329-3z"/><path d="m46 27c.681 0 1.533-1.089 2.155-3h-4.309c.621 1.911 1.473 3 2.154 3z"/><path d="m41.779 12c.244-.867.544-1.664.899-2.357-1.299.519-2.446 1.332-3.366 2.357z"/><path d="m41 55.918v.082c0 2.71 4.58 5 10 5s10-2.29 10-5v-.082c-2.132 1.871-5.778 3.082-10 3.082s-7.868-1.211-10-3.082z"/><path d="m51 39c-5.42 0-10 2.29-10 5s4.58 5 10 5 10-2.29 10-5-4.58-5-10-5zm0 7c-2.761 0-5-.895-5-2s2.239-2 5-2 5 .895 5 2-2.239 2-5 2z"/><path d="m41 47.918v.082c0 2.71 4.58 5 10 5s10-2.29 10-5v-.082c-2.132 1.871-5.778 3.082-10 3.082s-7.868-1.211-10-3.082z"/><path d="m41 51.918v.082c0 2.71 4.58 5 10 5s10-2.29 10-5v-.082c-2.132 1.871-5.778 3.082-10 3.082s-7.868-1.211-10-3.082z"/></g></svg>